<mxfile host="app.diagrams.net" modified="2024-03-10T19:21:31.214Z" agent="Mozilla/5.0 (Windows NT 10.0; Win64; x64) AppleWebKit/537.36 (KHTML, like Gecko) Chrome/122.0.0.0 Safari/537.36" etag="vaLsSoT_Cz2yLzppcS4K" version="24.0.1" type="device">
  <diagram name="Page-1" id="f1b7ffb7-ca1e-a977-7cf5-a751b3c06c05">
    <mxGraphModel dx="1647" dy="839" grid="1" gridSize="10" guides="1" tooltips="1" connect="1" arrows="1" fold="1" page="1" pageScale="1" pageWidth="826" pageHeight="1169" background="none" math="0" shadow="0">
      <root>
        <mxCell id="0" />
        <mxCell id="1" parent="0" />
        <mxCell id="prXC7z0RzdqDgRUVgg4r-71" style="rounded=0;orthogonalLoop=1;jettySize=auto;html=1;entryX=0.953;entryY=0.265;entryDx=0;entryDy=0;entryPerimeter=0;fillColor=#d5e8d4;strokeColor=#82b366;" parent="1" target="prXC7z0RzdqDgRUVgg4r-64" edge="1">
          <mxGeometry relative="1" as="geometry">
            <mxPoint x="379" y="250" as="sourcePoint" />
          </mxGeometry>
        </mxCell>
        <mxCell id="prXC7z0RzdqDgRUVgg4r-61" value="Website guest" style="shape=umlActor;verticalLabelPosition=bottom;verticalAlign=top;html=1;outlineConnect=0;fillColor=#d5e8d4;strokeColor=#82b366;" parent="1" vertex="1">
          <mxGeometry x="390" y="190" width="60" height="120" as="geometry" />
        </mxCell>
        <mxCell id="prXC7z0RzdqDgRUVgg4r-63" value="Log in" style="ellipse;whiteSpace=wrap;html=1;fillColor=#d5e8d4;strokeColor=#82b366;" parent="1" vertex="1">
          <mxGeometry x="169" y="80" width="120" height="80" as="geometry" />
        </mxCell>
        <mxCell id="prXC7z0RzdqDgRUVgg4r-64" value="Get companie&#39;s share prices (new graph)" style="ellipse;whiteSpace=wrap;html=1;fillColor=#d5e8d4;strokeColor=#82b366;" parent="1" vertex="1">
          <mxGeometry x="99" y="170" width="120" height="80" as="geometry" />
        </mxCell>
        <mxCell id="prXC7z0RzdqDgRUVgg4r-65" value="Add extra comapany to the existing graph (for comparison)" style="ellipse;whiteSpace=wrap;html=1;fillColor=#d5e8d4;strokeColor=#82b366;" parent="1" vertex="1">
          <mxGeometry x="537" y="80" width="120" height="80" as="geometry" />
        </mxCell>
        <mxCell id="prXC7z0RzdqDgRUVgg4r-66" value="Alter graph - change time range" style="ellipse;whiteSpace=wrap;html=1;fillColor=#d5e8d4;strokeColor=#82b366;" parent="1" vertex="1">
          <mxGeometry x="609" y="170" width="120" height="80" as="geometry" />
        </mxCell>
        <mxCell id="prXC7z0RzdqDgRUVgg4r-69" style="rounded=0;orthogonalLoop=1;jettySize=auto;html=1;entryX=0.995;entryY=0.627;entryDx=0;entryDy=0;entryPerimeter=0;fillColor=#d5e8d4;strokeColor=#82b366;" parent="1" target="prXC7z0RzdqDgRUVgg4r-63" edge="1">
          <mxGeometry relative="1" as="geometry">
            <mxPoint x="379" y="190" as="sourcePoint" />
          </mxGeometry>
        </mxCell>
        <mxCell id="prXC7z0RzdqDgRUVgg4r-70" style="rounded=0;orthogonalLoop=1;jettySize=auto;html=1;entryX=0.008;entryY=0.637;entryDx=0;entryDy=0;entryPerimeter=0;fillColor=#d5e8d4;strokeColor=#82b366;" parent="1" target="prXC7z0RzdqDgRUVgg4r-65" edge="1">
          <mxGeometry relative="1" as="geometry">
            <mxPoint x="459" y="190" as="sourcePoint" />
          </mxGeometry>
        </mxCell>
        <mxCell id="prXC7z0RzdqDgRUVgg4r-72" style="rounded=0;orthogonalLoop=1;jettySize=auto;html=1;entryX=0.072;entryY=0.265;entryDx=0;entryDy=0;entryPerimeter=0;fillColor=#d5e8d4;strokeColor=#82b366;" parent="1" target="prXC7z0RzdqDgRUVgg4r-66" edge="1">
          <mxGeometry relative="1" as="geometry">
            <mxPoint x="459" y="250" as="sourcePoint" />
          </mxGeometry>
        </mxCell>
        <mxCell id="prXC7z0RzdqDgRUVgg4r-74" value="&lt;h1&gt;Use case: Log in&amp;nbsp; &amp;nbsp;&lt;/h1&gt;&lt;h1&gt;&lt;span style=&quot;font-weight: normal;&quot;&gt;Main Actor: Website guest (user)&amp;nbsp; &amp;nbsp;&lt;/span&gt;&lt;/h1&gt;&lt;h1&gt;&lt;span style=&quot;font-weight: normal;&quot;&gt;Steps:&amp;nbsp; &amp;nbsp;&lt;/span&gt;&lt;/h1&gt;&lt;h1&gt;&lt;span style=&quot;font-weight: normal;&quot;&gt;1. Input credentials&amp;nbsp;&lt;/span&gt;&lt;/h1&gt;&lt;h1&gt;&lt;span style=&quot;font-weight: normal;&quot;&gt;&lt;span style=&quot;white-space: pre;&quot;&gt;&#x9;&lt;/span&gt;1. User inputs login and password&amp;nbsp;&lt;/span&gt;&lt;/h1&gt;&lt;h1&gt;&lt;span style=&quot;font-weight: normal;&quot;&gt;2. Confirm details&amp;nbsp;&lt;/span&gt;&lt;/h1&gt;&lt;h1&gt;&lt;span style=&quot;font-weight: normal;&quot;&gt;&lt;span style=&quot;white-space: pre;&quot;&gt;&#x9;&lt;/span&gt;1. User checks the data&amp;nbsp;&amp;nbsp;&lt;/span&gt;&lt;/h1&gt;&lt;h1&gt;&lt;span style=&quot;font-weight: normal;&quot;&gt;&lt;span style=&quot;white-space: pre;&quot;&gt;&#x9;&lt;/span&gt;2. User clicks &quot;Log in&quot; button&amp;nbsp;&amp;nbsp;&lt;/span&gt;&lt;/h1&gt;&lt;h1&gt;&lt;span style=&quot;font-weight: normal;&quot;&gt;3. Get granted access&amp;nbsp;&lt;/span&gt;&lt;/h1&gt;&lt;h1&gt;&lt;span style=&quot;font-weight: normal;&quot;&gt;&lt;span style=&quot;white-space: pre;&quot;&gt;&#x9;&lt;/span&gt;1. System validates credentials with what it has stored&amp;nbsp;&amp;nbsp;&lt;/span&gt;&lt;/h1&gt;&lt;h1&gt;&lt;span style=&quot;font-weight: normal;&quot;&gt;&lt;span style=&quot;white-space: pre;&quot;&gt;&#x9;&lt;/span&gt;2. If credentials are false - the user receives the option to &lt;span style=&quot;white-space: pre;&quot;&gt;&#x9;&lt;/span&gt;&lt;span style=&quot;white-space: pre;&quot;&gt;&#x9;&lt;/span&gt;repeat the entire process (prompt message)&lt;/span&gt;&lt;/h1&gt;&lt;h1&gt;&lt;span style=&quot;white-space: pre;&quot;&gt;&#x9;&lt;/span&gt;&lt;span style=&quot;font-weight: normal;&quot;&gt;3. If true - if true overlay-login window disappears giving access &lt;span style=&quot;white-space: pre;&quot;&gt;&#x9;&lt;/span&gt;&lt;span style=&quot;white-space: pre;&quot;&gt;&#x9;&lt;/span&gt;to the website&lt;/span&gt;&lt;/h1&gt;&lt;h1&gt;&lt;span style=&quot;font-weight: normal;&quot;&gt;&lt;span style=&quot;white-space: pre;&quot;&gt;&#x9;&lt;/span&gt;&lt;/span&gt;&lt;/h1&gt;" style="text;html=1;spacing=5;spacingTop=-20;whiteSpace=wrap;overflow=hidden;rounded=0;fillColor=#f5f5f5;fontColor=#333333;strokeColor=#666666;" parent="1" vertex="1">
          <mxGeometry x="43" y="470" width="740" height="600" as="geometry" />
        </mxCell>
        <mxCell id="IvF3Qy1FuetAe6yjBTnz-1" value="&lt;h1&gt;Use case: Obtain the share prices graph of the desired company (optional many separate graphs)&lt;span style=&quot;font-weight: normal;&quot;&gt;&amp;nbsp;&amp;nbsp;&lt;/span&gt;&lt;/h1&gt;&lt;h1&gt;&lt;span style=&quot;font-weight: normal;&quot;&gt;Main Actor: Website guest (user)&amp;nbsp; &amp;nbsp;&lt;/span&gt;&lt;/h1&gt;&lt;h1&gt;&lt;span style=&quot;font-weight: normal;&quot;&gt;Steps:&amp;nbsp; &amp;nbsp;&lt;/span&gt;&lt;/h1&gt;&lt;h1&gt;&lt;span style=&quot;font-weight: normal;&quot;&gt;1. Input relevant data&lt;/span&gt;&lt;/h1&gt;&lt;h1&gt;&lt;span style=&quot;font-weight: normal;&quot;&gt;&lt;span style=&quot;white-space: pre;&quot;&gt;&#x9;&lt;/span&gt;1. User inputs/selects from drop lists share symbol&lt;/span&gt;&lt;/h1&gt;&lt;h1&gt;&lt;span style=&quot;font-weight: normal;&quot;&gt;&lt;span style=&quot;white-space: pre;&quot;&gt;&#x9;&lt;/span&gt;2. User selects 2 edge dates (range limited to 2 years)&amp;nbsp;&amp;nbsp;&lt;/span&gt;&lt;/h1&gt;&lt;h1&gt;&lt;span style=&quot;font-weight: normal;&quot;&gt;&lt;span style=&quot;white-space: pre;&quot;&gt;&#x9;&lt;/span&gt;3. User clicks the &quot;Fetch&quot; button&lt;/span&gt;&lt;/h1&gt;&lt;h1&gt;&lt;span style=&quot;font-weight: normal;&quot;&gt;2. Validation&lt;/span&gt;&lt;/h1&gt;&lt;h1&gt;&lt;span style=&quot;font-weight: normal;&quot;&gt;&lt;span style=&quot;white-space: pre;&quot;&gt;&#x9;&lt;/span&gt;1. System checks if the time range is smaller than 2 years&lt;/span&gt;&lt;/h1&gt;&lt;h1&gt;&lt;span style=&quot;font-weight: normal;&quot;&gt;&lt;span style=&quot;white-space: pre;&quot;&gt;&#x9;&lt;/span&gt;2. System checks if share symbol and dates are properly &lt;span style=&quot;white-space: pre;&quot;&gt;&#x9;&lt;/span&gt;&lt;span style=&quot;white-space: pre;&quot;&gt;&#x9;&lt;/span&gt;chosen&lt;/span&gt;&amp;nbsp;&lt;span style=&quot;font-weight: normal; background-color: initial; font-size: 12px; white-space: pre;&quot;&gt;&#x9;&lt;/span&gt;&lt;/h1&gt;&lt;h1&gt;&lt;span style=&quot;font-weight: normal;&quot;&gt;&lt;span style=&quot;white-space: pre;&quot;&gt;&#x9;&lt;/span&gt;3. If not - the system asks for retaping the data&lt;/span&gt;&lt;/h1&gt;&lt;h1&gt;&lt;span style=&quot;font-weight: normal;&quot;&gt;2. Check connection&amp;nbsp;&lt;/span&gt;&lt;/h1&gt;&lt;h1&gt;&lt;span style=&quot;font-weight: normal;&quot;&gt;&lt;span style=&quot;white-space: pre;&quot;&gt;&#x9;&lt;/span&gt;1. System checks if there is a stable network connection&amp;nbsp;&amp;nbsp;&lt;/span&gt;&lt;/h1&gt;&lt;h1&gt;&lt;span style=&quot;font-weight: normal;&quot;&gt;&lt;span style=&quot;white-space: pre;&quot;&gt;&#x9;&lt;/span&gt;2. If not - and if it&#39;s not the 1st use - graph request is handled&amp;nbsp; &lt;span style=&quot;white-space: pre;&quot;&gt;&#x9;&lt;/span&gt;&lt;span style=&quot;white-space: pre;&quot;&gt;&#x9;&lt;/span&gt;via stored JSON file. Otherwise - error message.&lt;/span&gt;&lt;/h1&gt;&lt;h1&gt;&lt;span style=&quot;white-space: pre;&quot;&gt;&#x9;&lt;/span&gt;&lt;span style=&quot;font-weight: normal;&quot;&gt;3. The clock is set for 30 seconds to check the connection &lt;span style=&quot;white-space: pre;&quot;&gt;&#x9;&lt;/span&gt;&lt;span style=&quot;white-space: pre;&quot;&gt;&#x9;&lt;/span&gt;again&lt;/span&gt;&lt;/h1&gt;&lt;div&gt;&lt;h1&gt;&lt;span style=&quot;font-weight: normal;&quot;&gt;3. Fetch and display the data&lt;/span&gt;&lt;/h1&gt;&lt;/div&gt;&lt;div&gt;&lt;h1&gt;&lt;span style=&quot;font-weight: normal;&quot;&gt;&lt;span style=&quot;white-space: pre;&quot;&gt;&#x9;&lt;/span&gt;1. System fetches and &quot;draws&quot; the table from JSON file in case &lt;span style=&quot;white-space: pre;&quot;&gt;&#x9;&lt;/span&gt;&lt;span style=&quot;white-space: pre;&quot;&gt;&#x9;&lt;/span&gt;of offline mode or from particular websites in online mode&lt;/span&gt;&lt;/h1&gt;&lt;/div&gt;&lt;h1&gt;&lt;span style=&quot;font-weight: normal;&quot;&gt;&lt;span style=&quot;white-space: pre;&quot;&gt;&#x9;&lt;/span&gt;&lt;/span&gt;&lt;/h1&gt;" style="text;html=1;spacing=5;spacingTop=-20;whiteSpace=wrap;overflow=hidden;rounded=0;fillColor=#f5f5f5;fontColor=#333333;strokeColor=#666666;" parent="1" vertex="1">
          <mxGeometry x="43" y="1294" width="740" height="920" as="geometry" />
        </mxCell>
        <mxCell id="IvF3Qy1FuetAe6yjBTnz-2" value="&lt;h1&gt;Use case: Add extra company to the same graph&lt;span style=&quot;font-weight: normal;&quot;&gt;&amp;nbsp;&amp;nbsp;&lt;/span&gt;&lt;/h1&gt;&lt;h1&gt;&lt;span style=&quot;font-weight: normal;&quot;&gt;Main Actor: Website guest (user)&amp;nbsp; &amp;nbsp;&lt;/span&gt;&lt;/h1&gt;&lt;h1&gt;&lt;span style=&quot;font-weight: normal;&quot;&gt;Steps:&amp;nbsp; &amp;nbsp;&lt;/span&gt;&lt;/h1&gt;&lt;h1&gt;&lt;span style=&quot;font-weight: normal;&quot;&gt;1. Request new company&lt;/span&gt;&lt;/h1&gt;&lt;h1&gt;&lt;span style=&quot;font-weight: normal;&quot;&gt;&lt;span style=&quot;white-space: pre;&quot;&gt;&#x9;&lt;/span&gt;1. User clicks on &quot;Add&quot; button on the graph&lt;/span&gt;&lt;/h1&gt;&lt;h1&gt;&lt;span style=&quot;font-weight: normal;&quot;&gt;&lt;span style=&quot;white-space: pre;&quot;&gt;&#x9;&lt;/span&gt;2. System displays the same input form as during 1st attempt&amp;nbsp;&amp;nbsp;&lt;/span&gt;&lt;/h1&gt;&lt;h1&gt;&lt;span style=&quot;font-weight: normal;&quot;&gt;2. Input relevant data&lt;/span&gt;&lt;/h1&gt;&lt;h1&gt;&lt;span style=&quot;font-weight: normal;&quot;&gt;&lt;span style=&quot;white-space: pre;&quot;&gt;&#x9;&lt;/span&gt;1. User inputs/selects from drop lists share symbol&lt;/span&gt;&lt;/h1&gt;&lt;h1&gt;&lt;span style=&quot;font-weight: normal;&quot;&gt;&lt;span style=&quot;white-space: pre;&quot;&gt;&#x9;&lt;/span&gt;2. User selects 2 edge dates (range limited to 2 years)&amp;nbsp;&amp;nbsp;&lt;/span&gt;&lt;/h1&gt;&lt;h1&gt;&lt;span style=&quot;font-weight: normal;&quot;&gt;&lt;span style=&quot;white-space: pre;&quot;&gt;&#x9;&lt;/span&gt;3. User clicks the &quot;Fetch&quot; button&lt;/span&gt;&lt;/h1&gt;&lt;h1&gt;&lt;span style=&quot;font-weight: normal;&quot;&gt;3. Validation&lt;/span&gt;&lt;/h1&gt;&lt;h1&gt;&lt;span style=&quot;font-weight: normal;&quot;&gt;&lt;span style=&quot;white-space: pre;&quot;&gt;&#x9;&lt;/span&gt;1. System checks if the time range is smaller than 2 years&lt;/span&gt;&lt;/h1&gt;&lt;h1&gt;&lt;span style=&quot;font-weight: normal;&quot;&gt;&lt;span style=&quot;white-space: pre;&quot;&gt;&#x9;&lt;/span&gt;2. System checks if share symbol and dates are properly &lt;span style=&quot;white-space: pre;&quot;&gt;&#x9;&lt;/span&gt;&lt;span style=&quot;white-space: pre;&quot;&gt;&#x9;&lt;/span&gt;chosen&lt;/span&gt;&amp;nbsp;&lt;span style=&quot;font-weight: normal; background-color: initial; font-size: 12px; white-space: pre;&quot;&gt;&#x9;&lt;/span&gt;&lt;/h1&gt;&lt;h1&gt;&lt;span style=&quot;font-weight: normal;&quot;&gt;&lt;span style=&quot;white-space: pre;&quot;&gt;&#x9;&lt;/span&gt;3. If not - the system asks for retaping the data&lt;/span&gt;&lt;/h1&gt;&lt;h1&gt;&lt;span style=&quot;font-weight: normal;&quot;&gt;4. Rerender the graph&lt;/span&gt;&lt;/h1&gt;&lt;h1&gt;&lt;span style=&quot;font-weight: normal;&quot;&gt;&lt;span style=&quot;white-space: pre;&quot;&gt;&#x9;&lt;/span&gt;1. System fetches new data set and rerenders the graph&amp;nbsp;&lt;/span&gt;&lt;/h1&gt;&lt;h1&gt;&lt;span style=&quot;font-weight: normal;&quot;&gt;&lt;span style=&quot;white-space: pre;&quot;&gt;&#x9;&lt;/span&gt;&lt;/span&gt;&lt;/h1&gt;&lt;h1&gt;&lt;span style=&quot;font-weight: normal;&quot;&gt;&lt;span style=&quot;white-space: pre;&quot;&gt;&#x9;&lt;/span&gt;&lt;/span&gt;&lt;/h1&gt;" style="text;html=1;spacing=5;spacingTop=-20;whiteSpace=wrap;overflow=hidden;rounded=0;fillColor=#f5f5f5;fontColor=#333333;strokeColor=#666666;" parent="1" vertex="1">
          <mxGeometry x="43" y="2538" width="740" height="770" as="geometry" />
        </mxCell>
        <mxCell id="IvF3Qy1FuetAe6yjBTnz-3" value="&lt;h1&gt;Use case: Alter chosen graph&amp;nbsp; &amp;nbsp;&lt;/h1&gt;&lt;h1&gt;&lt;span style=&quot;font-weight: normal;&quot;&gt;Main Actor: Website guest (user)&amp;nbsp; &amp;nbsp;&lt;/span&gt;&lt;/h1&gt;&lt;h1&gt;&lt;span style=&quot;font-weight: normal;&quot;&gt;Steps:&amp;nbsp; &amp;nbsp;&lt;/span&gt;&lt;/h1&gt;&lt;h1&gt;&lt;span style=&quot;font-weight: normal;&quot;&gt;1. Reselect the dates&amp;nbsp;&lt;/span&gt;&lt;/h1&gt;&lt;h1&gt;&lt;span style=&quot;font-weight: normal;&quot;&gt;&lt;span style=&quot;white-space: pre;&quot;&gt;&#x9;&lt;/span&gt;1. User changes selected dates via proper dates inputs&amp;nbsp;&lt;/span&gt;&lt;/h1&gt;&lt;h1&gt;&lt;span style=&quot;font-weight: normal;&quot;&gt;2. Confirm details&amp;nbsp;&lt;/span&gt;&lt;/h1&gt;&lt;h1&gt;&lt;span style=&quot;font-weight: normal;&quot;&gt;&lt;span style=&quot;white-space: pre;&quot;&gt;&#x9;&lt;/span&gt;1. User checks the data&amp;nbsp;&amp;nbsp;&lt;/span&gt;&lt;/h1&gt;&lt;h1&gt;&lt;span style=&quot;font-weight: normal;&quot;&gt;&lt;span style=&quot;white-space: pre;&quot;&gt;&#x9;&lt;/span&gt;2. User clicks the &quot;Update&quot; button&amp;nbsp;&amp;nbsp;&lt;/span&gt;&lt;/h1&gt;&lt;h1&gt;&lt;span style=&quot;font-weight: normal;&quot;&gt;3. Refresh graph&amp;nbsp;&lt;/span&gt;&lt;/h1&gt;&lt;h1&gt;&lt;span style=&quot;font-weight: normal;&quot;&gt;&lt;span style=&quot;white-space: pre;&quot;&gt;&#x9;&lt;/span&gt;1. System validates dates if don&#39;t exceed 2 years span&amp;nbsp;&amp;nbsp;&lt;/span&gt;&lt;/h1&gt;&lt;h1&gt;&lt;span style=&quot;font-weight: normal;&quot;&gt;&lt;span style=&quot;white-space: pre;&quot;&gt;&#x9;&lt;/span&gt;2. System rerenders dataset based on new dates&lt;/span&gt;&lt;/h1&gt;&lt;h1&gt;&lt;span style=&quot;font-weight: normal;&quot;&gt;&lt;span style=&quot;white-space: pre;&quot;&gt;&#x9;&lt;/span&gt;&lt;/span&gt;&lt;/h1&gt;" style="text;html=1;spacing=5;spacingTop=-20;whiteSpace=wrap;overflow=hidden;rounded=0;fillColor=#f5f5f5;fontColor=#333333;strokeColor=#666666;" parent="1" vertex="1">
          <mxGeometry x="43" y="3572" width="740" height="510" as="geometry" />
        </mxCell>
        <mxCell id="nvk1kotuJneRoPwlSZF1-2" value="Buy/Sell stock" style="ellipse;whiteSpace=wrap;html=1;fillColor=#d5e8d4;strokeColor=#82b366;" vertex="1" parent="1">
          <mxGeometry x="609" y="260" width="120" height="80" as="geometry" />
        </mxCell>
        <mxCell id="nvk1kotuJneRoPwlSZF1-3" style="rounded=0;orthogonalLoop=1;jettySize=auto;html=1;entryX=0.008;entryY=0.637;entryDx=0;entryDy=0;entryPerimeter=0;fillColor=#d5e8d4;strokeColor=#82b366;" edge="1" parent="1" target="nvk1kotuJneRoPwlSZF1-2" source="prXC7z0RzdqDgRUVgg4r-61">
          <mxGeometry relative="1" as="geometry">
            <mxPoint x="459" y="410" as="sourcePoint" />
          </mxGeometry>
        </mxCell>
        <mxCell id="nvk1kotuJneRoPwlSZF1-4" value="Add to/&lt;br&gt;R&lt;span style=&quot;background-color: initial;&quot;&gt;emove from/&lt;br&gt;Display&lt;br&gt;Watchlist&lt;/span&gt;" style="ellipse;whiteSpace=wrap;html=1;fillColor=#d5e8d4;strokeColor=#82b366;" vertex="1" parent="1">
          <mxGeometry x="97" y="260" width="120" height="80" as="geometry" />
        </mxCell>
        <mxCell id="nvk1kotuJneRoPwlSZF1-5" style="rounded=0;orthogonalLoop=1;jettySize=auto;html=1;entryX=1;entryY=0.5;entryDx=0;entryDy=0;fillColor=#d5e8d4;strokeColor=#82b366;" edge="1" parent="1" target="nvk1kotuJneRoPwlSZF1-4" source="prXC7z0RzdqDgRUVgg4r-61">
          <mxGeometry relative="1" as="geometry">
            <mxPoint x="379" y="270" as="sourcePoint" />
          </mxGeometry>
        </mxCell>
        <mxCell id="nvk1kotuJneRoPwlSZF1-6" value="Display portfolio" style="ellipse;whiteSpace=wrap;html=1;fillColor=#d5e8d4;strokeColor=#82b366;" vertex="1" parent="1">
          <mxGeometry x="238" y="300" width="120" height="80" as="geometry" />
        </mxCell>
        <mxCell id="nvk1kotuJneRoPwlSZF1-7" style="rounded=0;orthogonalLoop=1;jettySize=auto;html=1;entryX=0.785;entryY=0.114;entryDx=0;entryDy=0;entryPerimeter=0;fillColor=#d5e8d4;strokeColor=#82b366;" edge="1" parent="1" target="nvk1kotuJneRoPwlSZF1-6" source="prXC7z0RzdqDgRUVgg4r-61">
          <mxGeometry relative="1" as="geometry">
            <mxPoint x="79" y="300" as="sourcePoint" />
          </mxGeometry>
        </mxCell>
        <mxCell id="nvk1kotuJneRoPwlSZF1-8" value="&lt;h1&gt;Use case: Buy / Sell stock&lt;span style=&quot;font-weight: normal;&quot;&gt;&amp;nbsp;&amp;nbsp;&lt;/span&gt;&lt;/h1&gt;&lt;h1&gt;&lt;span style=&quot;font-weight: normal;&quot;&gt;Main Actor: Website guest (user)&amp;nbsp; &amp;nbsp;&lt;/span&gt;&lt;/h1&gt;&lt;h1&gt;&lt;span style=&quot;font-weight: normal;&quot;&gt;Steps:&amp;nbsp; &amp;nbsp;&lt;/span&gt;&lt;/h1&gt;&lt;h1&gt;&lt;span style=&quot;font-weight: normal;&quot;&gt;1. Click Buy/Sell Icon on the graph&lt;/span&gt;&lt;/h1&gt;&lt;h1&gt;&lt;span style=&quot;font-weight: normal;&quot;&gt;&lt;span style=&quot;white-space: pre;&quot;&gt;&#x9;&lt;/span&gt;1. System redirects to the particular stocks trading website, &lt;span style=&quot;white-space: pre;&quot;&gt;&#x9;&lt;/span&gt;&lt;span style=&quot;white-space: pre;&quot;&gt;&#x9;&lt;/span&gt;opening a separate tab&lt;/span&gt;&lt;/h1&gt;&lt;h1&gt;&lt;span style=&quot;font-weight: normal;&quot;&gt;&lt;span style=&quot;white-space: pre;&quot;&gt;&#x9;&lt;/span&gt;2. User buys or sells on this external website&amp;nbsp;&amp;nbsp;&lt;/span&gt;&lt;/h1&gt;&lt;h1&gt;&lt;span style=&quot;font-weight: normal;&quot;&gt;2. Come back to the project website confirming the action&lt;/span&gt;&lt;/h1&gt;&lt;h1&gt;&lt;span style=&quot;font-weight: normal;&quot;&gt;&lt;span style=&quot;white-space: pre;&quot;&gt;&#x9;&lt;/span&gt;1. System displays a window with a prompt to select if the stock &lt;span style=&quot;white-space: pre;&quot;&gt;&#x9;&lt;/span&gt;&lt;span style=&quot;white-space: pre;&quot;&gt;&#x9;&lt;/span&gt;has been sold or purchased or if there was no real action&lt;/span&gt;&lt;/h1&gt;&lt;h1&gt;&lt;span style=&quot;font-weight: normal;&quot;&gt;&lt;span style=&quot;white-space: pre;&quot;&gt;&#x9;&lt;/span&gt;2. User selects proper option&amp;nbsp;&amp;nbsp;&lt;/span&gt;&lt;/h1&gt;&lt;h1&gt;&lt;span style=&quot;font-weight: normal;&quot;&gt;&lt;span style=&quot;white-space: pre;&quot;&gt;&#x9;&lt;/span&gt;3. User clicks the &quot;Fetch&quot; button&lt;/span&gt;&lt;/h1&gt;&lt;h1&gt;&lt;span style=&quot;font-weight: normal;&quot;&gt;3. Action based on selection&lt;/span&gt;&lt;/h1&gt;&lt;h1&gt;&lt;span style=&quot;font-weight: normal;&quot;&gt;&lt;span style=&quot;white-space: pre;&quot;&gt;&#x9;&lt;/span&gt;1. &quot;No action&quot; closes the window&lt;/span&gt;&lt;/h1&gt;&lt;h1&gt;&lt;span style=&quot;font-weight: normal;&quot;&gt;&lt;span style=&quot;white-space: pre;&quot;&gt;&#x9;&lt;/span&gt;2. &quot;Purchased&quot; adds to portfolio with fetched price&lt;/span&gt;&amp;nbsp;&lt;span style=&quot;font-weight: normal;&quot;&gt;and displays &lt;span style=&quot;white-space: pre;&quot;&gt;&#x9;&lt;/span&gt;&lt;span style=&quot;white-space: pre;&quot;&gt;&#x9;&lt;/span&gt;the message + question if to be deleted from the &lt;span style=&quot;white-space: pre;&quot;&gt;&#x9;&lt;/span&gt;&lt;span style=&quot;white-space: pre;&quot;&gt;&#x9;&lt;/span&gt;watchlist&lt;/span&gt;&lt;span style=&quot;font-weight: normal; background-color: initial; font-size: 12px; white-space: pre;&quot;&gt;&#x9;&lt;/span&gt;&lt;/h1&gt;&lt;h1&gt;&lt;span style=&quot;font-weight: normal;&quot;&gt;&lt;span style=&quot;white-space: pre;&quot;&gt;&#x9;&lt;/span&gt;3.&amp;nbsp;&lt;font style=&quot;font-size: 24px;&quot;&gt;&amp;nbsp;&quot;Sold&quot; removes from portfolio&lt;span style=&quot;background-color: initial;&quot;&gt;&amp;nbsp;&lt;/span&gt;&lt;span style=&quot;background-color: initial;&quot;&gt;and displays the message&amp;nbsp;&lt;/span&gt;&lt;/font&gt;+ &lt;span style=&quot;white-space: pre;&quot;&gt;&#x9;&lt;/span&gt;&lt;span style=&quot;white-space: pre;&quot;&gt;&#x9;&lt;/span&gt;question if to be added back to the watchlist&lt;span style=&quot;background-color: initial; font-size: 12px; white-space: pre;&quot;&gt;&#x9;&lt;/span&gt;&lt;/span&gt;&lt;/h1&gt;&lt;h1&gt;&lt;br&gt;&lt;/h1&gt;" style="text;html=1;spacing=5;spacingTop=-20;whiteSpace=wrap;overflow=hidden;rounded=0;fillColor=#f5f5f5;strokeColor=#666666;fontColor=#333333;" vertex="1" parent="1">
          <mxGeometry x="43" y="4876" width="740" height="770" as="geometry" />
        </mxCell>
        <mxCell id="nvk1kotuJneRoPwlSZF1-9" value="&lt;h1&gt;Use case: Add to /&lt;font style=&quot;font-size: 24px;&quot;&gt;&amp;nbsp;&lt;span style=&quot;color: rgb(0, 0, 0); text-align: center;&quot;&gt;R&lt;/span&gt;&lt;span style=&quot;color: rgb(0, 0, 0); text-align: center; background-color: initial;&quot;&gt;emove from /&amp;nbsp;Display Watchlist&lt;/span&gt;&amp;nbsp;&lt;/font&gt;&lt;/h1&gt;&lt;h1&gt;&lt;span style=&quot;font-weight: normal;&quot;&gt;Main Actor: Website guest (user)&amp;nbsp; &amp;nbsp;&lt;/span&gt;&lt;/h1&gt;&lt;h1&gt;&lt;span style=&quot;font-weight: normal;&quot;&gt;Steps:&amp;nbsp; &amp;nbsp;&lt;/span&gt;&lt;/h1&gt;&lt;h1&gt;&lt;span style=&quot;font-weight: normal;&quot;&gt;1. Add to the watchlist&lt;/span&gt;&lt;/h1&gt;&lt;h1&gt;&lt;span style=&quot;font-weight: normal;&quot;&gt;&lt;span style=&quot;white-space: pre;&quot;&gt;&#x9;&lt;/span&gt;1. User clicks on the &quot;watchlist&quot; icon on the graph&lt;/span&gt;&lt;/h1&gt;&lt;h1&gt;&lt;span style=&quot;font-weight: normal;&quot;&gt;&lt;span style=&quot;white-space: pre;&quot;&gt;&#x9;&lt;/span&gt;2. System adds to the watchlist &quot;data list&quot; stocks symbol&lt;/span&gt;&lt;/h1&gt;&lt;h1&gt;&lt;span style=&quot;font-weight: normal;&quot;&gt;&lt;span style=&quot;white-space: pre;&quot;&gt;&#x9;&lt;/span&gt;3. System displays a message confirming the taken action&lt;/span&gt;&lt;/h1&gt;&lt;h1&gt;&lt;span style=&quot;font-weight: normal;&quot;&gt;2. Remove from the watchlist&amp;nbsp;&lt;/span&gt;&lt;/h1&gt;&lt;h1&gt;&lt;span style=&quot;font-weight: normal;&quot;&gt;&lt;span style=&quot;white-space: pre;&quot;&gt;&#x9;&lt;/span&gt;1. User clicks on the &quot;watchlist&quot; again icon on the graph (It&#39;s &lt;span style=&quot;white-space: pre;&quot;&gt;&#x9;&lt;/span&gt;&lt;span style=&quot;white-space: pre;&quot;&gt;&#x9;&lt;/span&gt;a &quot;toggle&quot; icon)&lt;/span&gt;&lt;/h1&gt;&lt;h1&gt;&lt;span style=&quot;font-weight: normal;&quot;&gt;&lt;span style=&quot;white-space: pre;&quot;&gt;&#x9;&lt;/span&gt;2. System removes from the watchlist &quot;data list&quot; stocks symbol&lt;/span&gt;&lt;/h1&gt;&lt;h1&gt;&lt;span style=&quot;font-weight: normal;&quot;&gt;&lt;span style=&quot;white-space: pre;&quot;&gt;&#x9;&lt;/span&gt;3. System displays a message confirming the taken action&lt;/span&gt;&lt;/h1&gt;&lt;h1&gt;&lt;span style=&quot;font-weight: normal;&quot;&gt;3. Access the watchlist&lt;/span&gt;&lt;/h1&gt;&lt;h1&gt;&lt;span style=&quot;font-weight: normal;&quot;&gt;&lt;span style=&quot;white-space: pre;&quot;&gt;&#x9;&lt;/span&gt;1. User clicks on the watchlist tab&lt;/span&gt;&lt;/h1&gt;&lt;h1&gt;&lt;span style=&quot;font-weight: normal;&quot;&gt;&lt;span style=&quot;white-space: pre;&quot;&gt;&#x9;&lt;/span&gt;2. System renders a grid of graphs based on its watchlist&#39;s &lt;span style=&quot;white-space: pre;&quot;&gt;&#x9;&lt;/span&gt;&lt;span style=&quot;white-space: pre;&quot;&gt;&#x9;&lt;/span&gt;&quot;data list&quot;&lt;/span&gt;&lt;span style=&quot;font-weight: normal; background-color: initial; font-size: 12px; white-space: pre;&quot;&gt;&#x9;&lt;/span&gt;&lt;span style=&quot;font-weight: normal;&quot;&gt;with an extra checkbox if the user wants to &lt;span style=&quot;white-space: pre;&quot;&gt;&#x9;&lt;/span&gt;&lt;span style=&quot;white-space: pre;&quot;&gt;&#x9;&lt;/span&gt;combine the outcome on a single graph&lt;/span&gt;&lt;/h1&gt;" style="text;html=1;spacing=5;spacingTop=-20;whiteSpace=wrap;overflow=hidden;rounded=0;fillColor=#f5f5f5;strokeColor=#666666;fontColor=#333333;" vertex="1" parent="1">
          <mxGeometry x="43" y="6057" width="740" height="745" as="geometry" />
        </mxCell>
        <mxCell id="nvk1kotuJneRoPwlSZF1-10" value="&lt;h1&gt;Use case:&amp;nbsp;&lt;font style=&quot;font-size: 24px;&quot;&gt;Display Portfolio&amp;nbsp;&lt;/font&gt;&lt;/h1&gt;&lt;h1&gt;&lt;span style=&quot;font-weight: normal;&quot;&gt;Main Actor: Website guest (user)&amp;nbsp; &amp;nbsp;&lt;/span&gt;&lt;/h1&gt;&lt;h1&gt;&lt;span style=&quot;font-weight: normal;&quot;&gt;Steps:&amp;nbsp; &amp;nbsp;&lt;/span&gt;&lt;/h1&gt;&lt;h1&gt;&lt;span style=&quot;font-weight: normal;&quot;&gt;1. Access the portfolio&lt;/span&gt;&lt;/h1&gt;&lt;h1&gt;&lt;span style=&quot;font-weight: normal;&quot;&gt;&lt;span style=&quot;white-space: pre;&quot;&gt;&#x9;&lt;/span&gt;1. User clicks on &quot;Portfolio&quot; tab from the navigation menu&lt;/span&gt;&lt;/h1&gt;&lt;h1&gt;&lt;span style=&quot;font-weight: normal;&quot;&gt;&lt;span style=&quot;white-space: pre;&quot;&gt;&#x9;&lt;/span&gt;2. System renders subpage displaying bought stocks or &lt;span style=&quot;white-space: pre;&quot;&gt;&#x9;&lt;/span&gt;&lt;span style=&quot;white-space: pre;&quot;&gt;&#x9;&lt;/span&gt;appropriate message about lack of them&amp;nbsp;&amp;nbsp;&lt;/span&gt;&lt;/h1&gt;&lt;h1&gt;&lt;span style=&quot;font-weight: normal;&quot;&gt;2. Exit the portfolio&lt;/span&gt;&lt;/h1&gt;&lt;h1&gt;&lt;span style=&quot;font-weight: normal;&quot;&gt;&lt;span style=&quot;white-space: pre;&quot;&gt;&#x9;&lt;/span&gt;1. User clicks on the interested tab in particular or clicks &lt;span style=&quot;white-space: pre;&quot;&gt;&#x9;&lt;/span&gt;&lt;span style=&quot;white-space: pre;&quot;&gt;&#x9;&lt;/span&gt;browser &quot;Go Back&quot; button&lt;/span&gt;&lt;/h1&gt;&lt;h1&gt;&lt;span style=&quot;font-weight: normal;&quot;&gt;&lt;span style=&quot;white-space: pre;&quot;&gt;&#x9;&lt;/span&gt;2. System renders requested content/page&lt;/span&gt;&lt;/h1&gt;&lt;h1&gt;&lt;br&gt;&lt;/h1&gt;&lt;h1&gt;&lt;span style=&quot;font-weight: normal;&quot;&gt;&lt;span style=&quot;white-space: pre;&quot;&gt;&#x9;&lt;/span&gt;&lt;/span&gt;&lt;/h1&gt;&lt;h1&gt;&lt;span style=&quot;font-weight: normal;&quot;&gt;&lt;span style=&quot;white-space: pre;&quot;&gt;&#x9;&lt;/span&gt;&lt;/span&gt;&lt;/h1&gt;" style="text;html=1;spacing=5;spacingTop=-20;whiteSpace=wrap;overflow=hidden;rounded=0;fillColor=#f5f5f5;strokeColor=#666666;fontColor=#333333;" vertex="1" parent="1">
          <mxGeometry x="43" y="4122" width="740" height="490" as="geometry" />
        </mxCell>
        <mxCell id="nvk1kotuJneRoPwlSZF1-11" value="" style="shape=flexArrow;endArrow=classic;html=1;rounded=0;" edge="1" parent="1">
          <mxGeometry width="50" height="50" relative="1" as="geometry">
            <mxPoint x="413" y="1080" as="sourcePoint" />
            <mxPoint x="413" y="1130" as="targetPoint" />
          </mxGeometry>
        </mxCell>
        <mxCell id="nvk1kotuJneRoPwlSZF1-12" value="" style="shape=flexArrow;endArrow=classic;html=1;rounded=0;" edge="1" parent="1">
          <mxGeometry width="50" height="50" relative="1" as="geometry">
            <mxPoint x="413" y="2270" as="sourcePoint" />
            <mxPoint x="413" y="2320" as="targetPoint" />
          </mxGeometry>
        </mxCell>
        <mxCell id="nvk1kotuJneRoPwlSZF1-13" value="" style="shape=flexArrow;endArrow=classic;html=1;rounded=0;" edge="1" parent="1">
          <mxGeometry width="50" height="50" relative="1" as="geometry">
            <mxPoint x="413" y="3430" as="sourcePoint" />
            <mxPoint x="413" y="3480" as="targetPoint" />
          </mxGeometry>
        </mxCell>
        <mxCell id="nvk1kotuJneRoPwlSZF1-14" value="" style="shape=flexArrow;endArrow=classic;html=1;rounded=0;" edge="1" parent="1">
          <mxGeometry width="50" height="50" relative="1" as="geometry">
            <mxPoint x="412" y="4620" as="sourcePoint" />
            <mxPoint x="412" y="4670" as="targetPoint" />
          </mxGeometry>
        </mxCell>
        <mxCell id="nvk1kotuJneRoPwlSZF1-15" value="" style="shape=flexArrow;endArrow=classic;html=1;rounded=0;" edge="1" parent="1">
          <mxGeometry width="50" height="50" relative="1" as="geometry">
            <mxPoint x="413" y="5780" as="sourcePoint" />
            <mxPoint x="413" y="5830" as="targetPoint" />
          </mxGeometry>
        </mxCell>
      </root>
    </mxGraphModel>
  </diagram>
</mxfile>
